<?xml version="1.0" encoding="UTF-8" standalone="no"?>
<svg
   width="1200pt"
   height="1200pt"
   version="1.1"
   viewBox="0 0 1200 1200"
   id="svg8"
   sodipodi:docname="GPUPerfAPI.svg"
   inkscape:version="1.3.2 (091e20e, 2023-11-25, custom)"
   inkscape:export-filename="GPUPerfAPI.png"
   inkscape:export-xdpi="30.72"
   inkscape:export-ydpi="30.72"
   xmlns:inkscape="http://www.inkscape.org/namespaces/inkscape"
   xmlns:sodipodi="http://sodipodi.sourceforge.net/DTD/sodipodi-0.dtd"
   xmlns="http://www.w3.org/2000/svg"
   xmlns:svg="http://www.w3.org/2000/svg">
  <defs
     id="defs8" />
  <sodipodi:namedview
     id="namedview8"
     pagecolor="#ffffff"
     bordercolor="#666666"
     borderopacity="1.0"
     inkscape:showpageshadow="2"
     inkscape:pageopacity="0.0"
     inkscape:pagecheckerboard="0"
     inkscape:deskcolor="#d1d1d1"
     inkscape:document-units="pt"
     inkscape:zoom="0.80389202"
     inkscape:cx="258.74122"
     inkscape:cy="845.26277"
     inkscape:window-width="3840"
     inkscape:window-height="2054"
     inkscape:window-x="-11"
     inkscape:window-y="-11"
     inkscape:window-maximized="1"
     inkscape:current-layer="svg8" />
  <path
     d="m323.2 296.83 26.641 26.641c64.59-54.352 146.34-84.059 230.75-83.859 1.0938 0.74609 0-145.77 0.375-145.77-123.18-0.31641-242.17 44.691-334.31 126.45 16.207 16.664 59.723 59.391 76.543 76.543z"
     id="path1"
     style="fill:#ff6600" />
  <path
     d="m322.07 348.98c-18.984-18.977-84.992-85-102.81-102.8-88.457 89.609-139.96 209.22-144.27 335.06h145.58c4.5781-87.16 40.645-169.69 101.5-232.26z"
     id="path2"
     style="fill:#ffcc00" />
  <path
     d="m580.59 960.39c-84.41 0.19922-166.16-29.508-230.75-83.855l-103.18 103.18v-0.003906c92.043 81.672 210.89 126.67 333.94 126.45 4.9727-0.015625 9.7344-1.9961 13.25-5.5117s5.4961-8.2773 5.5117-13.25v-108.25c0.015625-4.9805-1.9531-9.7617-5.4766-13.285-3.5234-3.5234-8.3047-5.4922-13.285-5.4766z"
     id="path3"
     style="fill:#0055d4" />
  <path
     d="m220.58 618.76h-145.58c4.3086 125.84 55.809 245.45 144.27 335.06 28.992-28.992 73.816-73.812 102.81-102.8-60.852-62.566-96.918-145.1-101.5-232.25z"
     id="path4"
     style="fill:#00aa88" />
  <path
     d="m934.79 238.49c-85.152-83.676-197.24-134.4-316.3-143.14v146.33c80.211 8.6094 155.23 43.809 213.12 99.992 0.16797-0.066407 26.184-26.484 26.453-26.266 17.051-17.449 60.062-60.062 76.73-76.914z"
     id="path5"
     style="fill:#d40000" />
  <path
     d="m1123.5 576.93c-5.1602-15.105-25.754-11.262-37.895-11.633-7.5625-110.93-51.551-216.25-125.13-299.6-19.5 19.449-85.344 85.379-103.55 103.56l-0.003906-0.003906c46.617 55.539 75.328 123.88 82.359 196.05-11.801 0.019531-30.195-2.5859-35.27 11.633-1.3984 3.4375-1.7539 7.2109-1.0195 10.848 0.73438 3.6367 2.5234 6.9766 5.1445 9.6016l92.488 92.488h0.003906c3.5898 3.3477 8.3164 5.207 13.227 5.207 4.9062 0 9.6328-1.8594 13.227-5.207l92.488-92.488c2.5977-2.6406 4.3555-5.9922 5.0586-9.6289 0.69922-3.6406 0.30859-7.4023-1.1211-10.82z"
     id="path6"
     style="fill:#aa0088" />
  <path
     d="m712.29 768.84h-225.12c-19.953 0.23047-38.293 11.008-48.203 28.328s-9.9102 38.59 0 55.91c9.9102 17.316 28.25 28.094 48.203 28.324h225.12c19.949-0.23047 38.289-11.008 48.199-28.328 9.9102-17.316 9.9102-38.59 0-55.906-9.9102-17.32-28.25-28.098-48.199-28.328z"
     id="path7"
     style="fill:#808080" />
  <path
     d="m548.51 708.06c12.996 14.559 31.605 22.852 51.121 22.785 19.516-0.070312 38.066-8.4961 50.961-23.145s18.895-34.121 16.484-53.488l-48.777-356.82c-0.87891-5.9922-4.6016-11.195-9.9883-13.965-5.3867-2.7695-11.781-2.7695-17.168 0-5.3906 2.7695-9.1094 7.9727-9.9883 13.965l-48.777 356.82c-2.5742 19.43 3.3008 39.027 16.133 53.844z"
     id="path8"
     style="fill:#808080" />
</svg>
